<svg xmlns="http://www.w3.org/2000/svg" width="1048.167" height="74.167" viewBox="0 0 1048.167 74.167"><defs><style>.a{fill:#10596f;}</style></defs><g transform="translate(-674 -2885)"><path class="a" d="M17.9,7.447c1.1-9.93,15.538-9.93,16.641,0l.306,2.752a8.372,8.372,0,0,0,7.4,7.4L45,17.9c9.93,1.1,9.93,15.538,0,16.641l-2.752.306a8.372,8.372,0,0,0-7.4,7.4L34.542,45c-1.1,9.93-15.538,9.93-16.641,0L17.6,42.244a8.372,8.372,0,0,0-7.4-7.4l-2.752-.306c-9.93-1.1-9.93-15.538,0-16.641L10.2,17.6a8.372,8.372,0,0,0,7.4-7.4Z" transform="translate(955.083 2885) rotate(45)"/><path class="a" d="M17.9,7.447c1.1-9.93,15.538-9.93,16.641,0l.306,2.752a8.372,8.372,0,0,0,7.4,7.4L45,17.9c9.93,1.1,9.93,15.538,0,16.641l-2.752.306a8.372,8.372,0,0,0-7.4,7.4L34.542,45c-1.1,9.93-15.538,9.93-16.641,0L17.6,42.244a8.372,8.372,0,0,0-7.4-7.4l-2.752-.306c-9.93-1.1-9.93-15.538,0-16.641L10.2,17.6a8.372,8.372,0,0,0,7.4-7.4Z" transform="translate(1320.083 2885) rotate(45)"/><path class="a" d="M17.9,7.447c1.1-9.93,15.538-9.93,16.641,0l.306,2.752a8.372,8.372,0,0,0,7.4,7.4L45,17.9c9.93,1.1,9.93,15.538,0,16.641l-2.752.306a8.372,8.372,0,0,0-7.4,7.4L34.542,45c-1.1,9.93-15.538,9.93-16.641,0L17.6,42.244a8.372,8.372,0,0,0-7.4-7.4l-2.752-.306c-9.93-1.1-9.93-15.538,0-16.641L10.2,17.6a8.372,8.372,0,0,0,7.4-7.4Z" transform="translate(833.083 2885) rotate(45)"/><path class="a" d="M17.9,7.447c1.1-9.93,15.538-9.93,16.641,0l.306,2.752a8.372,8.372,0,0,0,7.4,7.4L45,17.9c9.93,1.1,9.93,15.538,0,16.641l-2.752.306a8.372,8.372,0,0,0-7.4,7.4L34.542,45c-1.1,9.93-15.538,9.93-16.641,0L17.6,42.244a8.372,8.372,0,0,0-7.4-7.4l-2.752-.306c-9.93-1.1-9.93-15.538,0-16.641L10.2,17.6a8.372,8.372,0,0,0,7.4-7.4Z" transform="translate(1076.083 2885) rotate(45)"/><path class="a" d="M17.9,7.447c1.1-9.93,15.538-9.93,16.641,0l.306,2.752a8.372,8.372,0,0,0,7.4,7.4L45,17.9c9.93,1.1,9.93,15.538,0,16.641l-2.752.306a8.372,8.372,0,0,0-7.4,7.4L34.542,45c-1.1,9.93-15.538,9.93-16.641,0L17.6,42.244a8.372,8.372,0,0,0-7.4-7.4l-2.752-.306c-9.93-1.1-9.93-15.538,0-16.641L10.2,17.6a8.372,8.372,0,0,0,7.4-7.4Z" transform="translate(1442.083 2885) rotate(45)"/><path class="a" d="M17.9,7.447c1.1-9.93,15.538-9.93,16.641,0l.306,2.752a8.372,8.372,0,0,0,7.4,7.4L45,17.9c9.93,1.1,9.93,15.538,0,16.641l-2.752.306a8.372,8.372,0,0,0-7.4,7.4L34.542,45c-1.1,9.93-15.538,9.93-16.641,0L17.6,42.244a8.372,8.372,0,0,0-7.4-7.4l-2.752-.306c-9.93-1.1-9.93-15.538,0-16.641L10.2,17.6a8.372,8.372,0,0,0,7.4-7.4Z" transform="translate(1685.083 2885) rotate(45)"/><path class="a" d="M17.9,7.447c1.1-9.93,15.538-9.93,16.641,0l.306,2.752a8.372,8.372,0,0,0,7.4,7.4L45,17.9c9.93,1.1,9.93,15.538,0,16.641l-2.752.306a8.372,8.372,0,0,0-7.4,7.4L34.542,45c-1.1,9.93-15.538,9.93-16.641,0L17.6,42.244a8.372,8.372,0,0,0-7.4-7.4l-2.752-.306c-9.93-1.1-9.93-15.538,0-16.641L10.2,17.6a8.372,8.372,0,0,0,7.4-7.4Z" transform="translate(1198.083 2885) rotate(45)"/><path class="a" d="M17.9,7.447c1.1-9.93,15.538-9.93,16.641,0l.306,2.752a8.372,8.372,0,0,0,7.4,7.4L45,17.9c9.93,1.1,9.93,15.538,0,16.641l-2.752.306a8.372,8.372,0,0,0-7.4,7.4L34.542,45c-1.1,9.93-15.538,9.93-16.641,0L17.6,42.244a8.372,8.372,0,0,0-7.4-7.4l-2.752-.306c-9.93-1.1-9.93-15.538,0-16.641L10.2,17.6a8.372,8.372,0,0,0,7.4-7.4Z" transform="translate(711.083 2885) rotate(45)"/><path class="a" d="M17.9,7.447c1.1-9.93,15.538-9.93,16.641,0l.306,2.752a8.372,8.372,0,0,0,7.4,7.4L45,17.9c9.93,1.1,9.93,15.538,0,16.641l-2.752.306a8.372,8.372,0,0,0-7.4,7.4L34.542,45c-1.1,9.93-15.538,9.93-16.641,0L17.6,42.244a8.372,8.372,0,0,0-7.4-7.4l-2.752-.306c-9.93-1.1-9.93-15.538,0-16.641L10.2,17.6a8.372,8.372,0,0,0,7.4-7.4Z" transform="translate(1563.083 2885) rotate(45)"/></g></svg>