<svg xmlns="http://www.w3.org/2000/svg" width="478.318" height="153.439" viewBox="0 0 478.318 153.439"><defs><style>.a{fill:#fff;}</style></defs><path class="a" d="M137.94-18.513a2.276,2.276,0,0,1-.605,1.815,3.247,3.247,0,0,1-1.694,1.089l-.6.121L110.473-9.68a102.433,102.433,0,0,1-6.231,16.274,81.017,81.017,0,0,1-8.41,13.733A95.383,95.383,0,0,1,81.07,35.211,90.718,90.718,0,0,1,63.283,46.464,92.771,92.771,0,0,1,46.4,52.877a71.464,71.464,0,0,1-16.4,2.541q-3.993,0-7.865-.363a28.115,28.115,0,0,1-6.9-1.452q-6.655-2.42-8.712-7.018-4.114-8.349.847-16.819t19.6-16.577Q39.446,6.534,59.169-.121q7.26-2.42,14.944-4.659t15.549-4.3q1.21-3.872,2.057-7.8t1.452-8.167a101.406,101.406,0,0,0,.968-25.833q-1.21-11.8-6.292-19.9A31.04,31.04,0,0,0,77.017-81.554a29.821,29.821,0,0,0-13.431-3.993,35.039,35.039,0,0,0-14.1,2.239,37.933,37.933,0,0,0-12.826,8.047,57.145,57.145,0,0,0-8.47,9.862,84.453,84.453,0,0,0-6.534,11.374,86.556,86.556,0,0,0-4.538,11.556A62.381,62.381,0,0,0,14.762-32a29.65,29.65,0,0,0-.061,8.228q.544,3.449,2.36,4.78Q19-17.545,18.211-15.912a5.63,5.63,0,0,1-3.025,2.6,11.114,11.114,0,0,1-5.324.726,9.565,9.565,0,0,1-5.747-2.662A16.073,16.073,0,0,1-.847-25.41,35.833,35.833,0,0,1,.363-39.446a63.8,63.8,0,0,1,6.9-15.791A72.933,72.933,0,0,1,19.42-70.482a76.662,76.662,0,0,1,16.94-12.282A67.694,67.694,0,0,1,57.717-89.9a74.032,74.032,0,0,1,25.833-.061,36.306,36.306,0,0,1,19.36,9.922q7.683,7.683,10.769,21.175t.182,33.577q-.363,2.783-.908,5.385T111.8-14.762l23.111-5.445.484-.121a2.287,2.287,0,0,1,1.876.3A1.489,1.489,0,0,1,137.94-18.513ZM11.011,43.8a10.192,10.192,0,0,0,4.659,4.961,14.79,14.79,0,0,0,6.594,1.452,29.643,29.643,0,0,0,7.684-1.089,67.717,67.717,0,0,0,7.926-2.662q3.872-1.573,7.26-3.327t5.808-3.207A90.809,90.809,0,0,0,73.507,21.477,77.3,77.3,0,0,0,88.088-3.872Q80.707-1.936,73.629.182T59.9,4.477q-40.535,13.431-48.4,27.1A12.248,12.248,0,0,0,11.011,43.8ZM26.741-6.534q-.968-2.9.545-8.349a103.541,103.541,0,0,1,4.235-11.979q2.723-6.534,6.05-13.431t6.05-12.765a102.764,102.764,0,0,0,4.114-9.983q1.392-4.114.424-5.082-.6-.484.242-1.149a6.779,6.779,0,0,1,2.42-1.089,17.961,17.961,0,0,1,3.569-.545,11.906,11.906,0,0,1,3.812.363,6.883,6.883,0,0,1,3.146,1.815,5.953,5.953,0,0,1,1.573,3.751,24.892,24.892,0,0,1-1.149,9.922A77.2,77.2,0,0,1,57.415-44.1q-2.723,5.627-5.929,11.313T45.5-21.78a96.988,96.988,0,0,0-4.6,10.043,19.918,19.918,0,0,0-1.573,8.349q0,1.089-1.512,2.118a6.3,6.3,0,0,1-3.63,1.028,7.9,7.9,0,0,1-4.235-1.331Q27.83-2.9,26.741-6.534ZM180.532-39.325a1.947,1.947,0,0,1,.726,2.662q-2.057,4.356-4.9,9.136a87.086,87.086,0,0,1-6.413,9.317,79.273,79.273,0,0,1-7.562,8.349,41.678,41.678,0,0,1-8.289,6.231,26.422,26.422,0,0,1-8.772,3.146,15.928,15.928,0,0,1-8.833-1.089A13.359,13.359,0,0,1,129.531-7.2a19.335,19.335,0,0,1-2.481-8.168,30.435,30.435,0,0,1,.726-9.257,60.784,60.784,0,0,1,2.662-8.772,61.36,61.36,0,0,1,6.473-12.523,40.861,40.861,0,0,1,7.563-8.41,28.951,28.951,0,0,1,8.228-4.84,24.5,24.5,0,0,1,8.591-1.573q4.477,0,6.594,2.178a7.813,7.813,0,0,1,2.118,5.687,18.831,18.831,0,0,1-1.936,7.744,34.016,34.016,0,0,1-5.506,8.288,42.308,42.308,0,0,1-8.651,7.381,39.212,39.212,0,0,1-11.374,5.021,43.51,43.51,0,0,0-1.21,6.232,26.707,26.707,0,0,0-.121,5.627,11.192,11.192,0,0,0,1.149,4.235,3.819,3.819,0,0,0,2.723,2.057,10.19,10.19,0,0,0,5.747-.786,26.483,26.483,0,0,0,6.292-3.812,53.475,53.475,0,0,0,6.292-5.929,82.991,82.991,0,0,0,5.808-7.139,83.117,83.117,0,0,0,4.84-7.441,49.939,49.939,0,0,0,3.327-6.837,2.187,2.187,0,0,1,1.27-1.331A1.993,1.993,0,0,1,180.532-39.325ZM145.079-31.7a25.121,25.121,0,0,0-.968,2.42,32.783,32.783,0,0,0,11.919-6.957,35.2,35.2,0,0,0,6.958-8.712,17.067,17.067,0,0,0,2.359-7.442q.06-3.146-2.117-3.267-3.267-.121-8.228,6.292A85.97,85.97,0,0,0,145.079-31.7ZM191.785-2.783l-.121.121A31.981,31.981,0,0,1,186.582-.6a14.745,14.745,0,0,1-4.114.726q-4.84,0-7.441-2.48a11.991,11.991,0,0,1-3.449-5.869A16.022,16.022,0,0,1,171.336-15a10.045,10.045,0,0,1,2.3-5.2,14.532,14.532,0,0,1,4.356-3.388,5.787,5.787,0,0,1,3.267-.605,4.426,4.426,0,0,1,2.48,1.089,3.036,3.036,0,0,1,1.15,2.42,3.526,3.526,0,0,1-1.15,2.662,3.685,3.685,0,0,1-2.6,1.089,3.568,3.568,0,0,1-2.057-.666,3.378,3.378,0,0,1-1.331-1.754A10.106,10.106,0,0,0,175.571-15a12.408,12.408,0,0,0-.242,4.84A7.333,7.333,0,0,0,177.2-6.232a5.789,5.789,0,0,0,4.174,1.754,6.973,6.973,0,0,0,2.783-.907,12.708,12.708,0,0,0,3.691-3.025,20.56,20.56,0,0,0,3.327-5.445,23.959,23.959,0,0,0,1.755-8.046,41.252,41.252,0,0,0-1.029-11.011,64.626,64.626,0,0,0-5.082-14.157q-1.21,2.3-2.723,5.021t-2.723,5.142a2.148,2.148,0,0,1-1.452.968,2.938,2.938,0,0,1-1.573-.181,1.867,1.867,0,0,1-1.029-.968,1.612,1.612,0,0,1,.182-1.513q.968-2.057,1.815-3.691t1.694-3.085q.847-1.452,1.573-2.965t1.573-3.207a15.858,15.858,0,0,1-2.057-4.235,15.978,15.978,0,0,1-.726-4.84,11.245,11.245,0,0,1,.424-2.723,11.615,11.615,0,0,1,1.452-3.267,8.939,8.939,0,0,1,2.844-2.783,8.7,8.7,0,0,1,4.719-1.15,6.22,6.22,0,0,1,4.417,1.331,4.908,4.908,0,0,1,1.512,3.388,10.808,10.808,0,0,1-.847,4.538,27.029,27.029,0,0,1-2.541,4.9l-.363.726a67.051,67.051,0,0,1,7.563,10.406,50.447,50.447,0,0,1,4.3,9.438,32.069,32.069,0,0,1,1.633,8.349,24.99,24.99,0,0,1-.665,7.26,112.807,112.807,0,0,0,7.139-9.075,73.144,73.144,0,0,0,5.2-8.47,2.041,2.041,0,0,1,1.089-1.15,2.1,2.1,0,0,1,1.815.3,1.981,1.981,0,0,1,1.029,1.331,2.328,2.328,0,0,1-.182,1.573A73.5,73.5,0,0,1,215.2-24.563q-3.812,5.2-8.41,10.406a61.01,61.01,0,0,1-6.837,6.534,34.138,34.138,0,0,1-8.046,4.84Zm57.354-48.158a3.3,3.3,0,0,1,.545-1.815,5.289,5.289,0,0,1,1.391-1.452,2.028,2.028,0,0,0-1.936-1.452,5.593,5.593,0,0,0-3.751,1.513,26.918,26.918,0,0,0-4.417,4.719,64.657,64.657,0,0,0-4.9,7.623q-2.541,4.537-5.082,10.1a44.7,44.7,0,0,0-2.6,7.744,42.68,42.68,0,0,0-1.21,7.986,18.817,18.817,0,0,0,.665,6.474,4.186,4.186,0,0,0,3.146,3.206,10.19,10.19,0,0,0,5.747-.786,26.483,26.483,0,0,0,6.292-3.812,53.478,53.478,0,0,0,6.292-5.929,82.994,82.994,0,0,0,5.808-7.139,83.12,83.12,0,0,0,4.84-7.441,49.941,49.941,0,0,0,3.327-6.837,2,2,0,0,1,1.21-1.271,2.249,2.249,0,0,1,1.815.182,1.771,1.771,0,0,1,.847,2.541,95.1,95.1,0,0,1-4.78,9.015,87.628,87.628,0,0,1-6.352,9.256,83.269,83.269,0,0,1-7.563,8.41,42.78,42.78,0,0,1-8.349,6.413,25.7,25.7,0,0,1-8.833,3.206A16.094,16.094,0,0,1,222.4-1.573,13.263,13.263,0,0,1,215.44-7.26a19.692,19.692,0,0,1-2.48-8.168,30.143,30.143,0,0,1,.726-9.2,60.786,60.786,0,0,1,2.662-8.772,64.782,64.782,0,0,1,6.473-12.644,41.1,41.1,0,0,1,7.563-8.591,26.149,26.149,0,0,1,8.228-4.779,24.219,24.219,0,0,1,8.591-1.331,18.437,18.437,0,0,1,3.086.544,9.379,9.379,0,0,1,3.025,1.392,8.2,8.2,0,0,1,2.36,2.6,7.834,7.834,0,0,1,.968,4.054,4.812,4.812,0,0,1-1.089,3.509,3.223,3.223,0,0,1-2.662,1.21,3.93,3.93,0,0,1-2.6-.968A3.161,3.161,0,0,1,249.139-50.941Zm73.689,14.036q-.968,2.057-2.783,5.627t-4.3,7.623q-2.48,4.054-5.384,8.167a77.5,77.5,0,0,1-5.99,7.5,37.069,37.069,0,0,1-6.232,5.566,10.7,10.7,0,0,1-6.05,2.178,7.062,7.062,0,0,1-4.174-.968A8.1,8.1,0,0,1,285.076-4.3a13.67,13.67,0,0,1-1.452-4.84,25.775,25.775,0,0,1,0-6.111,5.288,5.288,0,0,1,.121-1.149q.121-.545.242-1.149-2.3,3.388-4.78,6.474a56.3,56.3,0,0,1-5.021,5.505A26.547,26.547,0,0,1,269.1-1.694a9.79,9.79,0,0,1-4.84,1.452,7.062,7.062,0,0,1-4.174-.968A8.1,8.1,0,0,1,257.246-4.3a13.669,13.669,0,0,1-1.452-4.84,25.775,25.775,0,0,1,0-6.111,48.18,48.18,0,0,1,1.876-8.47q1.392-4.477,3.206-8.954t3.691-8.652q1.876-4.174,3.267-7.562a39.613,39.613,0,0,0,1.936-5.687q.545-2.3-.3-3.146-.847-.726.786-1.694a8.712,8.712,0,0,1,4.053-1.089,10.6,10.6,0,0,1,5.022,1.089,7.228,7.228,0,0,1,3.69,4.84,14.913,14.913,0,0,1-.363,8.531A68.566,68.566,0,0,1,278.6-35.574q-2.6,5.445-5.566,10.769t-4.961,9.5a23.234,23.234,0,0,0-2.3,6.655q-.3,2.481,2.48,2.239,1.452-.121,4.235-3.025a66.68,66.68,0,0,0,5.868-7.2q3.085-4.3,6.05-9.075t4.9-8.53q1.815-4.235,3.569-8.107t3.025-7.078a36.983,36.983,0,0,0,1.755-5.385q.484-2.178-.363-2.9t.786-1.694a8.711,8.711,0,0,1,4.053-1.089,10.6,10.6,0,0,1,5.022,1.089,7.228,7.228,0,0,1,3.69,4.84,14.914,14.914,0,0,1-.363,8.531,68.566,68.566,0,0,1-4.053,10.466q-2.6,5.445-5.566,10.769t-4.961,9.5a23.236,23.236,0,0,0-2.3,6.655q-.3,2.481,2.48,2.239a6.441,6.441,0,0,0,3.025-1.936,46.584,46.584,0,0,0,4.235-4.659q2.3-2.843,4.719-6.352t4.6-7.018q2.178-3.509,3.872-6.655a38.819,38.819,0,0,0,2.42-5.2,1.814,1.814,0,0,1,1.21-1.21,2.613,2.613,0,0,1,1.573,0,2.068,2.068,0,0,1,1.15.968A1.483,1.483,0,0,1,322.828-36.905ZM334.081-9.68a3.348,3.348,0,0,1-2.057,3.267,2.249,2.249,0,0,0,2.057,1.452,5.677,5.677,0,0,0,3.69-1.513,25.562,25.562,0,0,0,4.477-4.719,66.925,66.925,0,0,0,4.9-7.563q2.541-4.477,5.082-10.164a45.178,45.178,0,0,0,2.6-7.684,41.6,41.6,0,0,0,1.21-7.925A18.816,18.816,0,0,0,355.377-51a4.479,4.479,0,0,0-3.146-3.327q-2.783-.6-5.747,1.694a33.588,33.588,0,0,0-5.929,6.171,82.732,82.732,0,0,0-5.808,8.772q-2.843,4.9-5.142,9.378-2.178,4.719-4.054,8.893t-3.025,7.5a48.266,48.266,0,0,0-1.633,5.626,5.416,5.416,0,0,0,0,3.267q.484.968-.786,2A5.294,5.294,0,0,1,316.839.061a7.3,7.3,0,0,1-4.114-1.27q-2.117-1.331-3.206-4.961-.726-2.178.423-7.018A103.829,103.829,0,0,1,313.451-24.5q2.359-6.474,5.505-13.975T325.43-53.6q3.327-7.623,6.413-14.823t5.384-12.886q2.3-5.687,3.388-9.438t.363-4.477q-.847-.726.786-1.694a8.832,8.832,0,0,1,4.114-1.089,10.4,10.4,0,0,1,5.022,1.089q2.541,1.21,3.63,4.84a12.511,12.511,0,0,1-.182,5.808,64.322,64.322,0,0,1-2.6,8.712q-1.815,4.961-4.3,10.829t-5.384,12.04a22.3,22.3,0,0,1,8.652-5.2,14.417,14.417,0,0,1,10.1.847,13.934,13.934,0,0,1,6.957,5.748,19.248,19.248,0,0,1,2.481,8.107,30.144,30.144,0,0,1-.726,9.2,60.782,60.782,0,0,1-2.662,8.773,63.919,63.919,0,0,1-7.018,13.31A40.566,40.566,0,0,1,351.747-5.2a25.212,25.212,0,0,0,10.708-5.142,66.144,66.144,0,0,0,8.893-8.893,97.829,97.829,0,0,0,7.2-9.62,100.941,100.941,0,0,0,5.263-8.893A2.041,2.041,0,0,1,384.9-38.9a2.1,2.1,0,0,1,1.815.3,1.981,1.981,0,0,1,1.029,1.331,2.328,2.328,0,0,1-.182,1.573A91.787,91.787,0,0,1,380.847-24.2a110.787,110.787,0,0,1-8.409,10.769A58.932,58.932,0,0,1,365.964-7.2,32.6,32.6,0,0,1,358.22-2.48a36.234,36.234,0,0,1-9.741,2.6,53.457,53.457,0,0,1-12.463,0,18.437,18.437,0,0,1-3.086-.545,9.379,9.379,0,0,1-3.025-1.391,8.2,8.2,0,0,1-2.359-2.6,7.834,7.834,0,0,1-.968-4.054,4.723,4.723,0,0,1,.968-3.388,3.438,3.438,0,0,1,2.783-1.331,3.93,3.93,0,0,1,2.6.968A3.161,3.161,0,0,1,334.081-9.68Zm53.24-26.015a1.837,1.837,0,0,1-1.15.968,2.235,2.235,0,0,1-1.452,0,2.15,2.15,0,0,1-1.089-.907,1.765,1.765,0,0,1-.061-1.634q.363-1.089,1.331-3.327t1.936-4.719q.968-2.481,1.936-4.84a26.554,26.554,0,0,0,1.331-3.932,12.2,12.2,0,0,1-4.779-4.235,10.2,10.2,0,0,1-2-5.808,10.607,10.607,0,0,1,1.936-6.413,6.714,6.714,0,0,1,5.808-2.662,5.384,5.384,0,0,1,4.174,2,7.515,7.515,0,0,1,1.875,4.78q0,1.573-.181,4.356a24.455,24.455,0,0,1-.665,4.6,3.155,3.155,0,0,0,1.633.6,19.224,19.224,0,0,0,2.238.121,11.568,11.568,0,0,0,4.174-.6,17.411,17.411,0,0,0,2.6-1.271q1.089-.666,2.178-1.271a5.979,5.979,0,0,1,2.9-.6,10.739,10.739,0,0,1,4.84,1.21,7.34,7.34,0,0,1,3.509,4.719,14.913,14.913,0,0,1-.363,8.531,68.57,68.57,0,0,1-4.054,10.466q-2.6,5.445-5.566,10.769t-4.961,9.5a23.234,23.234,0,0,0-2.3,6.655q-.3,2.481,2.48,2.239a6.441,6.441,0,0,0,3.025-1.936,46.58,46.58,0,0,0,4.235-4.659q2.3-2.843,4.719-6.352t4.6-7.018q2.178-3.509,3.872-6.655a38.814,38.814,0,0,0,2.42-5.2,1.814,1.814,0,0,1,1.21-1.21,2.613,2.613,0,0,1,1.573,0,2.068,2.068,0,0,1,1.149.968,1.483,1.483,0,0,1-.06,1.573q-.968,2.057-2.783,5.627t-4.3,7.623q-2.48,4.054-5.384,8.167a77.5,77.5,0,0,1-5.99,7.5,37.069,37.069,0,0,1-6.232,5.566A10.7,10.7,0,0,1,401.6-.242a7.062,7.062,0,0,1-4.174-.968A8.1,8.1,0,0,1,394.581-4.3a13.669,13.669,0,0,1-1.452-4.84,25.778,25.778,0,0,1,0-6.111,45.719,45.719,0,0,1,2.3-10.043q1.815-5.324,3.993-10.466t4.235-9.619A63.935,63.935,0,0,0,406.681-53a19.128,19.128,0,0,1-5.747,1.15,19.948,19.948,0,0,1-6.352-.666q-.363.847-1.271,3.086t-2,4.84q-1.089,2.6-2.178,5.082T387.321-35.695Zm88.935-3.63a1.947,1.947,0,0,1,.726,2.662q-2.057,4.356-4.9,9.136a87.084,87.084,0,0,1-6.413,9.317,79.274,79.274,0,0,1-7.562,8.349,41.677,41.677,0,0,1-8.288,6.231,26.422,26.422,0,0,1-8.773,3.146,15.928,15.928,0,0,1-8.833-1.089A13.359,13.359,0,0,1,425.254-7.2a19.335,19.335,0,0,1-2.48-8.168,30.437,30.437,0,0,1,.726-9.257,60.782,60.782,0,0,1,2.662-8.772,61.361,61.361,0,0,1,6.474-12.523,40.86,40.86,0,0,1,7.563-8.41,28.951,28.951,0,0,1,8.228-4.84,24.5,24.5,0,0,1,8.591-1.573q4.477,0,6.595,2.178a7.813,7.813,0,0,1,2.117,5.687,18.831,18.831,0,0,1-1.936,7.744,34.017,34.017,0,0,1-5.505,8.288,42.309,42.309,0,0,1-8.652,7.381,39.212,39.212,0,0,1-11.374,5.021,43.513,43.513,0,0,0-1.21,6.232,26.706,26.706,0,0,0-.121,5.627,11.192,11.192,0,0,0,1.15,4.235A3.819,3.819,0,0,0,440.8-6.292a10.19,10.19,0,0,0,5.747-.786,26.483,26.483,0,0,0,6.292-3.812,53.474,53.474,0,0,0,6.292-5.929,82.991,82.991,0,0,0,5.808-7.139,83.123,83.123,0,0,0,4.84-7.441,49.941,49.941,0,0,0,3.327-6.837,2.187,2.187,0,0,1,1.271-1.331A1.993,1.993,0,0,1,476.256-39.325ZM440.8-31.7a25.118,25.118,0,0,0-.968,2.42,32.784,32.784,0,0,0,11.919-6.957,35.2,35.2,0,0,0,6.957-8.712,17.067,17.067,0,0,0,2.359-7.442q.06-3.146-2.117-3.267-3.267-.121-8.228,6.292A85.97,85.97,0,0,0,440.8-31.7Z" transform="translate(1.094 98.021)"/></svg>