<svg xmlns="http://www.w3.org/2000/svg" width="32.935" height="32.935" viewBox="0 0 32.935 32.935"><defs><style>.a{fill:#c42126;}.b{fill:#e7e7e7;}.c{fill:#dc3027;}.d{fill:#f3f4f5;}.e{fill:#e73625;}.f{fill:#283991;}.g{fill:#efefef;}</style></defs><g transform="translate(-0.002)"><g transform="translate(0.07)"><rect class="a" width="32.788" transform="translate(0.006 18.008)"/><rect class="a" width="29.371" transform="translate(1.714 9.018)"/><rect class="a" width="31.706" transform="translate(0.546 12.014)"/><path class="a" d="M101.779,431.346h0Z" transform="translate(-94.769 -401.353)"/><path class="a" d="M223.952,0c-.323,0-.644.012-.963.03h1.926C224.6.012,224.275,0,223.952,0Z" transform="translate(-207.552 0)"/><rect class="a" width="32.798" transform="translate(0 15.011)"/></g><path class="b" d="M289.93,46.521h7.863a16.549,16.549,0,0,0-3.222-3h-5.9A15.654,15.654,0,0,1,289.93,46.521Z" transform="translate(-268.594 -40.499)"/><path class="c" d="M246.544,3.426h5.9a16.377,16.377,0,0,0-8.545-3H243.4C244.89.618,245.576,1.724,246.544,3.426Z" transform="translate(-226.471 -0.4)"/><path class="b" d="M328.154,132.706a16.358,16.358,0,0,0-1.168-3H317.94c.183.962.328,1.966.435,3Z" transform="translate(-295.831 -120.691)"/><path class="c" d="M300.632,89.608h9.555a16.476,16.476,0,0,0-1.955-3h-8.347A26.441,26.441,0,0,1,300.632,89.608Z" transform="translate(-279.033 -80.59)"/><path class="b" d="M329.178,218.889h9.973c.047-.507.074-1.02.074-1.539,0-.491-.026-.976-.068-1.457H329.18C329.213,216.889,329.212,217.893,329.178,218.889Z" transform="translate(-306.288 -200.882)"/><path class="c" d="M328.9,175.8a16.4,16.4,0,0,0-.546-3h-10.2c.1.981.17,1.985.2,3Z" transform="translate(-296.031 -160.787)"/><path class="b" d="M315.465,305.071h9.175a16.334,16.334,0,0,0,1.187-3h-9.919C315.8,303.106,315.651,304.11,315.465,305.071Z" transform="translate(-293.529 -281.071)"/><path class="c" d="M331.628,261.984a16.361,16.361,0,0,0,.564-3H321.908c-.035,1.012-.1,2.015-.209,3Z" transform="translate(-299.329 -240.98)"/><path class="b" d="M295.035,391.257a16.564,16.564,0,0,0,3.27-3h-7.726a15.306,15.306,0,0,1-1.287,3Z" transform="translate(-269.174 -361.265)"/><g transform="translate(15.773 24)"><path class="c" d="M303.625,348.163h8.017a16.489,16.489,0,0,0,1.982-3h-9.243A26.076,26.076,0,0,1,303.625,348.163Z" transform="translate(-298.285 -345.167)"/><path class="c" d="M226.918,473.461l-.1,0Z" transform="translate(-226.818 -464.537)"/><path class="c" d="M236.837,434.3a16.391,16.391,0,0,0,9.39-2.942h-5.96C239.21,433.182,238.512,434.3,236.837,434.3Z" transform="translate(-236.14 -425.367)"/></g><path class="a" d="M228.852,473.521c-.2,0-.4,0-.6-.012C228.455,473.516,228.654,473.521,228.852,473.521Z" transform="translate(-212.382 -440.585)"/><path class="d" d="M70.626,43.525H56.969a16.552,16.552,0,0,0-3.222,3H71.89A15.654,15.654,0,0,0,70.626,43.525Z" transform="translate(-50.008 -40.499)"/><path class="e" d="M100.092,3.426h13.657c-.968-1.7-2.2-2.808-3.693-3h-1.419A16.375,16.375,0,0,0,100.092,3.426Z" transform="translate(-93.131 -0.4)"/><path class="d" d="M8.835,132.706H31.282c-.107-1.029-.252-2.034-.435-3H10A16.355,16.355,0,0,0,8.835,132.706Z" transform="translate(-8.219 -120.691)"/><path class="e" d="M27.592,86.609a16.488,16.488,0,0,0-1.955,3H46.48a26.405,26.405,0,0,0-.746-3Z" transform="translate(-23.853 -80.587)"/><path class="d" d="M0,217.352c0,.519.027,1.033.074,1.539H23.264c.034-1,.035-2,0-3H.07C.028,216.376,0,216.861,0,217.352Z" transform="translate(0 -200.885)"/><path class="e" d="M.978,175.8h23.2c-.033-1.011-.1-2.015-.2-3H1.524A16.381,16.381,0,0,0,.978,175.8Z" transform="translate(-0.908 -160.787)"/><path class="d" d="M31.59,302.072H9.175a16.349,16.349,0,0,0,1.187,3H31.146C31.333,304.107,31.48,303.1,31.59,302.072Z" transform="translate(-8.535 -281.069)"/><path class="e" d="M1.632,261.984H24.047c.1-.98.174-1.984.209-3H1.068A16.385,16.385,0,0,0,1.632,261.984Z" transform="translate(-0.992 -240.98)"/><path class="d" d="M58.023,391.257h13.49a15.3,15.3,0,0,0,1.287-3H54.753A16.557,16.557,0,0,0,58.023,391.257Z" transform="translate(-50.944 -361.265)"/><g transform="translate(1.827 24)"><path class="e" d="M26.254,345.166a16.5,16.5,0,0,0,1.982,3H46.282a26.12,26.12,0,0,0,.756-3Z" transform="translate(-26.254 -345.166)"/><path class="e" d="M110.486,434.286l.1,0c.2.007.4.012.6.012,1.675,0,3.04-1.12,4.1-2.942H101.793A16.381,16.381,0,0,0,110.486,434.286Z" transform="translate(-96.541 -425.366)"/></g><path class="f" d="M17.065.123A16.463,16.463,0,0,0,1.008,15.1H17.065V.123Z" transform="translate(-0.936 -0.114)"/><g transform="translate(0.556 1.141)"><path class="g" d="M33.155,134.187l.251.772h.813l-.658.478.251.773-.657-.478-.657.478.251-.773-.657-.478H32.9Z" transform="translate(-30.414 -125.998)"/><path class="g" d="M33.155,173.438l.251.773h.813l-.658.478.251.773-.657-.478-.657.478.251-.773-.657-.478H32.9Z" transform="translate(-30.414 -162.52)"/><path class="g" d="M72.409,75.3l.251.773h.813l-.657.478.251.772-.657-.477-.657.477L72,76.547l-.658-.478h.813Z" transform="translate(-66.939 -71.202)"/><path class="g" d="M72.409,114.554l.251.773h.813l-.657.477.251.773-.657-.477-.657.477L72,115.8l-.658-.477h.813Z" transform="translate(-66.939 -107.73)"/><path class="g" d="M72.409,153.812l.251.773h.813l-.657.477.251.773-.657-.478-.657.478.251-.773-.658-.477h.813Z" transform="translate(-66.939 -144.259)"/><path class="g" d="M8.639,165.422l-.251-.773.657-.477H8.233l-.018-.056c-.089.276-.17.555-.244.838l.011-.009Z" transform="translate(-7.971 -153.845)"/><path class="g" d="M37.175,96.949l.657-.478.657.478-.251-.773L38.9,95.7h-.813l-.251-.772-.251.772h-.3c-.056.084-.109.169-.164.255l.308.223Z" transform="translate(-35.091 -89.467)"/><path class="g" d="M77.844,47.926l.657.477-.251-.772.657-.478h-.469q-.6.447-1.153.946l-.1.3Z" transform="translate(-72.373 -45.016)"/><path class="g" d="M116.452,27.385l.657-.478.657.478-.251-.773.657-.477h-.813l-.034-.1c-.275.141-.548.287-.814.443l.191.139Z" transform="translate(-108.909 -25.362)"/><path class="g" d="M111.668,55.671l.251.772h.813l-.657.478.251.773-.657-.478-.657.478.251-.773-.658-.478h.813Z" transform="translate(-103.468 -52.941)"/><path class="g" d="M111.668,94.929l.251.772h.813l-.657.478.251.773-.657-.478-.657.478.251-.773L110.6,95.7h.813Z" transform="translate(-103.468 -89.47)"/><path class="g" d="M111.668,134.187l.251.772h.813l-.657.478.251.773-.657-.478-.657.478.251-.773-.658-.478h.813Z" transform="translate(-103.468 -125.998)"/><path class="g" d="M111.668,173.438l.251.773h.813l-.657.478.251.773-.657-.478-.657.478.251-.773-.658-.478h.813Z" transform="translate(-103.468 -162.52)"/><path class="g" d="M150.926,36.038l.251.773h.813l-.657.478.251.772-.657-.477-.658.477.251-.772-.658-.478h.813Z" transform="translate(-139.996 -34.673)"/><path class="g" d="M150.926,75.3l.251.773h.813l-.657.478.251.772-.657-.477-.658.477.251-.772-.658-.478h.813Z" transform="translate(-139.996 -71.202)"/><path class="g" d="M150.926,114.554l.251.773h.813l-.657.477.251.773-.657-.477-.658.477.251-.773-.658-.477h.813Z" transform="translate(-139.996 -107.73)"/><path class="g" d="M150.926,153.812l.251.773h.813l-.657.477.251.773-.657-.478-.658.478.251-.773-.658-.477h.813Z" transform="translate(-139.996 -144.259)"/><path class="g" d="M190.184,16.413l.251.773h.813l-.657.477.251.773-.657-.478-.658.478.251-.773-.658-.477h.813Z" transform="translate(-176.525 -16.413)"/><path class="g" d="M190.184,55.671l.251.772h.813l-.657.478.251.773-.657-.478-.658.478.251-.773-.658-.478h.813Z" transform="translate(-176.525 -52.941)"/><path class="g" d="M190.184,94.929l.251.772h.813l-.657.478.251.773-.657-.478-.658.478.251-.773-.658-.478h.813Z" transform="translate(-176.525 -89.47)"/><path class="g" d="M190.184,134.187l.251.772h.813l-.657.478.251.773-.657-.478-.658.478.251-.773-.658-.478h.813Z" transform="translate(-176.525 -125.998)"/><path class="g" d="M190.184,173.438l.251.773h.813l-.657.478.251.773-.657-.478-.658.478.251-.773-.658-.478h.813Z" transform="translate(-176.525 -162.52)"/></g></g></svg>