<svg xmlns="http://www.w3.org/2000/svg" xmlns:xlink="http://www.w3.org/1999/xlink" width="31.582" height="41.55" viewBox="0 0 31.582 41.55"><defs><style>.a{fill:#fff;stroke:#fff;stroke-width:0.5px;}.b{filter:url(#a);}</style><filter id="a" x="0" y="0" width="31.582" height="41.55" filterUnits="userSpaceOnUse"><feOffset dy="3" input="SourceAlpha"/><feGaussianBlur stdDeviation="3" result="b"/><feFlood flood-opacity="0.451"/><feComposite operator="in" in2="b"/><feComposite in="SourceGraphic"/></filter></defs><g class="b" transform="matrix(1, 0, 0, 1, 0, 0)"><path class="a" d="M8.581,23.05H4.89a1.119,1.119,0,0,1-1.118-1.118V13.606H1.618A1.119,1.119,0,0,1,.5,12.488V8.92A1.119,1.119,0,0,1,1.618,7.8H3.772V6.016A6.083,6.083,0,0,1,5.38,1.658,5.793,5.793,0,0,1,9.651,0l2.815,0a1.12,1.12,0,0,1,1.116,1.118V4.435a1.119,1.119,0,0,1-1.118,1.118h-1.9c-.578,0-.725.116-.757.151-.052.059-.114.225-.114.685V7.8h2.623a1.136,1.136,0,0,1,.553.141,1.122,1.122,0,0,1,.575.978v3.568a1.119,1.119,0,0,1-1.118,1.118H9.7v8.326A1.119,1.119,0,0,1,8.581,23.05ZM5.123,21.7H8.348V13a.747.747,0,0,1,.746-.747h3v-3.1H9.094a.747.747,0,0,1-.746-.747V6.391A2.3,2.3,0,0,1,8.8,4.811,2.29,2.29,0,0,1,10.569,4.2h1.662V1.355l-2.581,0c-2.792,0-4.527,1.787-4.527,4.664V8.407a.747.747,0,0,1-.746.747H1.851v3.1H4.377A.747.747,0,0,1,5.123,13ZM12.464,1.356h0Zm0,0" transform="translate(8.75 6.25)"/></g></svg>