<svg xmlns="http://www.w3.org/2000/svg" xmlns:xlink="http://www.w3.org/1999/xlink" width="41.041" height="41.045" viewBox="0 0 41.041 41.045"><defs><style>.a{fill:#fff;}.b{filter:url(#e);}.c{filter:url(#c);}.d{filter:url(#a);}</style><filter id="a" x="0" y="0" width="41.041" height="41.045" filterUnits="userSpaceOnUse"><feOffset dy="3" input="SourceAlpha"/><feGaussianBlur stdDeviation="3" result="b"/><feFlood flood-opacity="0.451"/><feComposite operator="in" in2="b"/><feComposite in="SourceGraphic"/></filter><filter id="c" x="5.605" y="5.605" width="29.84" height="29.84" filterUnits="userSpaceOnUse"><feOffset dy="3" input="SourceAlpha"/><feGaussianBlur stdDeviation="3" result="d"/><feFlood flood-opacity="0.451"/><feComposite operator="in" in2="d"/><feComposite in="SourceGraphic"/></filter><filter id="e" x="16.297" y="3.989" width="20.764" height="20.764" filterUnits="userSpaceOnUse"><feOffset dy="3" input="SourceAlpha"/><feGaussianBlur stdDeviation="3" result="f"/><feFlood flood-opacity="0.451"/><feComposite operator="in" in2="f"/><feComposite in="SourceGraphic"/></filter></defs><g transform="translate(9 6)"><g class="d" transform="matrix(1, 0, 0, 1, -9, -6)"><path class="a" d="M23.431,6.775a8.421,8.421,0,0,0-.536-2.8A5.9,5.9,0,0,0,19.524.608a8.442,8.442,0,0,0-2.8-.536C15.494.014,15.1,0,11.974,0S8.454.014,7.225.068A8.423,8.423,0,0,0,4.429.6,5.623,5.623,0,0,0,2.385,1.936,5.674,5.674,0,0,0,1.057,3.975a8.443,8.443,0,0,0-.536,2.8C.463,8,.449,8.4.449,11.525s.014,3.52.068,4.749a8.42,8.42,0,0,0,.536,2.8,5.9,5.9,0,0,0,3.372,3.372,8.444,8.444,0,0,0,2.8.536c1.229.054,1.621.068,4.749.068s3.52-.013,4.749-.068a8.419,8.419,0,0,0,2.8-.536,5.894,5.894,0,0,0,3.372-3.372,8.449,8.449,0,0,0,.536-2.8c.054-1.229.068-1.621.068-4.749S23.485,8,23.431,6.775Zm-2.075,9.409a6.316,6.316,0,0,1-.4,2.138,3.823,3.823,0,0,1-2.188,2.188,6.339,6.339,0,0,1-2.138.4c-1.215.054-1.58.068-4.655.068s-3.444-.013-4.655-.068a6.313,6.313,0,0,1-2.138-.4,3.546,3.546,0,0,1-1.323-.86A3.583,3.583,0,0,1,3,18.327a6.34,6.34,0,0,1-.4-2.138c-.054-1.216-.068-1.58-.068-4.655s.013-3.444.068-4.655A6.313,6.313,0,0,1,3,4.74a3.5,3.5,0,0,1,.864-1.324,3.577,3.577,0,0,1,1.323-.86,6.343,6.343,0,0,1,2.138-.4c1.215-.054,1.58-.068,4.655-.068s3.444.014,4.655.068a6.316,6.316,0,0,1,2.138.4,3.544,3.544,0,0,1,1.323.86,3.582,3.582,0,0,1,.86,1.324,6.342,6.342,0,0,1,.4,2.138c.054,1.216.068,1.58.068,4.655S21.41,14.969,21.356,16.184Zm0,0" transform="translate(8.55 6)"/></g><g class="c" transform="matrix(1, 0, 0, 1, -9, -6)"><path class="a" d="M130.869,124.5a5.92,5.92,0,1,0,5.92,5.92A5.921,5.921,0,0,0,130.869,124.5Zm0,9.76a3.84,3.84,0,1,1,3.84-3.84A3.841,3.841,0,0,1,130.869,134.26Zm0,0" transform="translate(-110.34 -112.9)"/></g><g class="b" transform="matrix(1, 0, 0, 1, -9, -6)"><path class="a" d="M365.214,89.984a1.382,1.382,0,1,1-1.382-1.382A1.382,1.382,0,0,1,365.214,89.984Zm0,0" transform="translate(-337.15 -78.61)"/></g></g></svg>