<svg xmlns="http://www.w3.org/2000/svg" width="27.176" height="20.7" viewBox="0 0 27.176 20.7"><defs><style>.a{fill:#fbe40f;}</style></defs><g transform="translate(0 -61)"><g transform="translate(1.365 61)"><g transform="translate(0 0)"><path class="a" d="M49.143,61h-22.4a2.361,2.361,0,0,0-1.023.239l12.17,12.17,2.728-2.621h0l9.548-9.547A2.361,2.361,0,0,0,49.143,61Z" transform="translate(-25.721 -61)"/></g></g><g transform="translate(17.952 62.366)"><g transform="translate(0 0)"><path class="a" d="M347.2,86.728l-8.985,8.985L347.2,104.7a2.361,2.361,0,0,0,.239-1.023V87.751A2.361,2.361,0,0,0,347.2,86.728Z" transform="translate(-338.213 -86.728)"/></g></g><g transform="translate(0 62.365)"><path class="a" d="M.239,86.721A2.361,2.361,0,0,0,0,87.744v15.923a2.361,2.361,0,0,0,.239,1.023l8.985-8.985Z" transform="translate(0 -86.721)"/></g><g transform="translate(1.365 72.476)"><path class="a" d="M41.175,277.211l-2.728,2.622a.8.8,0,0,1-1.126,0L34.7,277.211,25.714,286.2a2.361,2.361,0,0,0,1.024.24h22.4a2.361,2.361,0,0,0,1.023-.239Z" transform="translate(-25.714 -277.211)"/></g></g></svg>