<svg xmlns="http://www.w3.org/2000/svg" width="36.403" height="36.403" viewBox="0 0 36.403 36.403"><defs><style>.a{fill:#fbe40f;}</style></defs><path class="a" d="M33.482,23.894a20.668,20.668,0,0,1-6.491-1.034,2.967,2.967,0,0,0-2.885.608l-4.093,3.09A22.62,22.62,0,0,1,9.842,16.39l3-3.986a2.942,2.942,0,0,0,.724-2.981,20.7,20.7,0,0,1-1.038-6.5A2.924,2.924,0,0,0,9.606,0H2.921A2.924,2.924,0,0,0,0,2.921,33.52,33.52,0,0,0,33.482,36.4,2.924,2.924,0,0,0,36.4,33.482V26.815A2.924,2.924,0,0,0,33.482,23.894Z"/></svg>