<svg xmlns="http://www.w3.org/2000/svg" xmlns:xlink="http://www.w3.org/1999/xlink" width="45.233" height="42.219" viewBox="0 0 45.233 42.219"><defs><style>.a{fill:#fff;}.b{filter:url(#a);}</style><filter id="a" x="0" y="0" width="45.233" height="42.219" filterUnits="userSpaceOnUse"><feOffset dy="3" input="SourceAlpha"/><feGaussianBlur stdDeviation="3" result="b"/><feFlood flood-opacity="0.451"/><feComposite operator="in" in2="b"/><feComposite in="SourceGraphic"/></filter></defs><g class="b" transform="matrix(1, 0, 0, 1, 0, 0)"><path class="a" d="M.524,23.794A15.08,15.08,0,0,0,9.1,26.47a15.213,15.213,0,0,0,11.569-5.253A17.848,17.848,0,0,0,25.006,9.2a7.239,7.239,0,0,0,2.351-4.776.863.863,0,0,0-1.3-.8,3.329,3.329,0,0,1-2.892.525A5.789,5.789,0,0,0,15.9,3.084a6.51,6.51,0,0,0-3.208,6A13.988,13.988,0,0,1,3.445,3.615a.825.825,0,0,0-1.406.124A6.964,6.964,0,0,0,1.9,10.151a.952.952,0,0,0-.748.965A6.808,6.808,0,0,0,3.27,16.078a.985.985,0,0,0-.22.965A6.5,6.5,0,0,0,6.544,21.1a9.335,9.335,0,0,1-5.453.986.938.938,0,0,0-.566,1.71Zm8.809-2.377a.948.948,0,0,0-.506-1.669,4.393,4.393,0,0,1-3.522-1.985,5.637,5.637,0,0,0,1.174-.2.953.953,0,0,0-.055-1.812A4.56,4.56,0,0,1,3.08,12.492a5.506,5.506,0,0,0,1.312.189.946.946,0,0,0,.49-1.709,4.815,4.815,0,0,1-1.83-5.053A15.457,15.457,0,0,0,13.642,11.04.91.91,0,0,0,14.522,9.9a4.668,4.668,0,0,1,2.19-5.176,4.15,4.15,0,0,1,5.375.884c.513.585,2.242.607,3.121.385a5.9,5.9,0,0,1-1.569,2,.96.96,0,0,0-.366.809,15.887,15.887,0,0,1-3.85,11.129A13.572,13.572,0,0,1,9.1,24.606a13.436,13.436,0,0,1-4.633-.822,11.207,11.207,0,0,0,4.867-2.367Z" transform="translate(8.88 3.75)"/></g></svg>