<svg xmlns="http://www.w3.org/2000/svg" width="28.391" height="28.391" viewBox="0 0 28.391 28.391"><defs><style>.a{fill:#fbe40f;}</style></defs><path class="a" d="M24.407,3.983A13.6,13.6,0,0,0,2.879,20.165L0,28.391l8.225-2.879A13.6,13.6,0,0,0,24.407,3.983ZM21.514,18.652l-1.57,1.57c-1.3,1.3-4.991-.281-8.243-3.533S6.868,9.747,8.168,8.447l1.57-1.57a.833.833,0,0,1,1.178,0l1.963,1.963a.833.833,0,0,1,0,1.178L11.7,11.194a11.553,11.553,0,0,0,5.5,5.5l1.178-1.178a.833.833,0,0,1,1.178,0l1.963,1.963A.833.833,0,0,1,21.514,18.652Z"/></svg>