<svg xmlns="http://www.w3.org/2000/svg" xmlns:xlink="http://www.w3.org/1999/xlink" width="62.096" height="62.096" viewBox="0 0 62.096 62.096"><defs><style>.a{fill:#fff;stroke:#fff;stroke-width:0.8px;}.b{filter:url(#c);}.c{filter:url(#a);}</style><filter id="a" x="0" y="0" width="62.096" height="62.096" filterUnits="userSpaceOnUse"><feOffset dy="3" input="SourceAlpha"/><feGaussianBlur stdDeviation="3" result="b"/><feFlood flood-opacity="0.451"/><feComposite operator="in" in2="b"/><feComposite in="SourceGraphic"/></filter><filter id="c" x="7.766" y="8.143" width="47.258" height="45.407" filterUnits="userSpaceOnUse"><feOffset dy="3" input="SourceAlpha"/><feGaussianBlur stdDeviation="3" result="d"/><feFlood flood-opacity="0.451"/><feComposite operator="in" in2="d"/><feComposite in="SourceGraphic"/></filter></defs><g transform="translate(9.4 6.4)"><g class="c" transform="matrix(1, 0, 0, 1, -9.4, -6.4)"><path class="a" d="M21.648,0A21.652,21.652,0,0,0,3.278,33.106c-.855,3-2.4,8.663-2.416,8.722A.833.833,0,0,0,1.91,42.842L10.491,40.2A21.649,21.649,0,1,0,21.648,0Zm0,41.631a19.933,19.933,0,0,1-10.6-3.04.833.833,0,0,0-.442-.127.847.847,0,0,0-.245.037L2.868,40.807c.55-2.009,1.54-5.6,2.113-7.6a.836.836,0,0,0-.1-.684,19.985,19.985,0,1,1,16.768,9.109Z" transform="translate(9.4 6.4)"/></g><g class="b" transform="matrix(1, 0, 0, 1, -9.4, -6.4)"><path class="a" d="M37.353,28.385c-1.537-.853-2.846-1.709-3.8-2.334-.729-.476-1.256-.82-1.643-1.014a1.892,1.892,0,0,0-2.21.157.833.833,0,0,0-.1.127C28.474,27,27.01,28.612,26.581,28.7a20.048,20.048,0,0,1-5.119-3.315c-2.353-1.961-3.833-3.838-4.051-5.117,1.51-1.554,2.053-2.531,2.053-3.644,0-1.147-2.674-5.933-3.158-6.417s-1.579-.56-3.25-.227a.841.841,0,0,0-.425.227c-.2.2-4.937,5.029-2.687,10.879,2.47,6.42,8.808,13.883,16.89,15.1a17.513,17.513,0,0,0,2.585.206c4.754,0,7.56-2.392,8.35-7.137A.829.829,0,0,0,37.353,28.385ZM27.081,34.534C18.535,33.252,13.152,24.785,11.5,20.488c-1.64-4.263,1.385-8.064,2.144-8.923a6.28,6.28,0,0,1,1.54-.107A29.9,29.9,0,0,1,17.8,16.623c0,.437-.142,1.046-1.838,2.742a.829.829,0,0,0-.244.589c0,4.36,9.2,10.408,10.824,10.408,1.416,0,3.263-2.38,4.315-3.932a.79.79,0,0,1,.309.1c.3.151.819.49,1.476.919.868.567,2.02,1.32,3.38,2.1C35.4,32.518,33.677,35.525,27.081,34.534Z" transform="translate(7.84 4.76)"/></g></g></svg>